<svg xmlns="http://www.w3.org/2000/svg" xmlns:xlink="http://www.w3.org/1999/xlink" viewBox="0 0 512 512" width="84" height="84" fill="none" class="block__⍰ ⍰-smw">
    <style>
    .⍰-sign {
        animation: var(--⍰-smb3-animation, ⍰-smb3-wink) 1.7s steps(2, end) infinite;
    }

    .⍰-sign--two { animation-delay: -.85s; }

    @keyframes ⍰-smb3-wink {
        0% { transform: translate(-100%, 0); }
        25% { transform: translate(-50%, 0); }
        50% { transform: translate(0%, 0); }
        75% { transform: translate(50%, 0); }
        100% { transform: translate(100%, 0); }
    }
    </style>

    <!-- Outline -->
    <path fill="#000" d="M32 64H0v384h32v32h32v32h384v-32h32v-32h32V64h-32V32h-32V0H64v32H32v32z"/>

    <!-- Backgrounds -->
    <path fill="#885818" d="M32 416v32h32v32h384v-32h32V64h-32V32h-32v384H32z"/>
    <path fill="#d8a038" d="M64 416v32h352v-32h32V64h-32V32H64v32H32v352h32z"/>
    <path fill="#f8d820" d="M64 96v288h32v32h288v-32h32V96h-32V64H96v32H64z"/>

    <!-- Glow -->
    <path fill="#e8f0f8" d="M32 192h32v32H32z"/>
    <path fill="#e8f0f8" d="M64 160H32V64h32V32h96v32H96v32H64v64z"/>

    <!-- Eyes -->
    <path fill="#000" d="M160 160h32v128h-32z"/>
    <path fill="#000" d="M320 160h32v128h-32z"/>

    <!-- ⍰ + mask -->
    <defs>
        <clipPath id="⍰-sign-smw-clip">
            <rect x="32" y="32" width="448" height="448"/>
        </clipPath>
        <g id="⍰-sign-smw-path">
            <path fill="#000" d="M64 128v64h32v32h64v64h32v32h-32v64h32v32h96v-32h32v-64h-32v-32h64v-32h32v-32h32v-96h-32V96h-32V64H128v32H96v32H64z"/>
            <path fill="#e8f0f8" d="M192 320h96v64h-96z"/>
            <path fill="#e8f0f8" d="M96 128v64h96v-32h96v64h-96v64h96v-32h64v-32h32v-96h-32V96H128v32H96z"/>
        </g>
    </defs>
    <g clip-path="url(#⍰-sign-smw-clip)">
        <use xlink:href="#⍰-sign-smw-path" id="⍰-sign-smw-one" class="⍰-sign"></use>
        <use xlink:href="#⍰-sign-smw-path" id="⍰-sign-smw-two" class="⍰-sign ⍰-sign--two"></use>
    </g>
</svg>
